<svg width="25" height="25" viewBox="0 0 25 25" fill="none" xmlns="http://www.w3.org/2000/svg">
<path d="M6.25 0C5.39062 0 4.6875 0.703125 4.6875 1.5625V23.4375C4.6875 24.2969 5.39062 25 6.25 25H21.875C22.7344 25 23.4375 24.2969 23.4375 23.4375V6.25L17.1875 0H6.25Z" fill="#E2E5E7"/>
<path d="M18.75 6.25H23.4375L17.1875 0V4.6875C17.1875 5.54688 17.8906 6.25 18.75 6.25Z" fill="#B0B7BD"/>
<path d="M23.4375 10.9375L18.75 6.25H23.4375V10.9375Z" fill="#CAD1D8"/>
<path d="M20.3125 20.3125C20.3125 20.7422 19.9609 21.0938 19.5312 21.0938H2.34375C1.91406 21.0938 1.5625 20.7422 1.5625 20.3125V12.5C1.5625 12.0703 1.91406 11.7188 2.34375 11.7188H19.5312C19.9609 11.7188 20.3125 12.0703 20.3125 12.5V20.3125Z" fill="#F15642"/>
<path d="M4.96777 14.8023C4.96777 14.5961 5.13027 14.3711 5.39199 14.3711H6.83496C7.64746 14.3711 8.37871 14.9148 8.37871 15.957C8.37871 16.9445 7.64746 17.4945 6.83496 17.4945H5.79199V18.3195C5.79199 18.5945 5.61699 18.75 5.39199 18.75C5.18574 18.75 4.96777 18.5945 4.96777 18.3195V14.8023ZM5.79199 15.1578V16.7141H6.83496C7.25371 16.7141 7.58496 16.3445 7.58496 15.957C7.58496 15.5203 7.25371 15.1578 6.83496 15.1578H5.79199Z" fill="white"/>
<path d="M9.60215 18.75C9.3959 18.75 9.1709 18.6375 9.1709 18.3633V14.8149C9.1709 14.5906 9.3959 14.4274 9.60215 14.4274H11.0326C13.8873 14.4274 13.8248 18.75 11.0889 18.75H9.60215ZM9.9959 15.1899V17.9883H11.0326C12.7193 17.9883 12.7943 15.1899 11.0326 15.1899H9.9959Z" fill="white"/>
<path d="M14.8372 15.2398V16.2328H16.4302C16.6552 16.2328 16.8802 16.4578 16.8802 16.6757C16.8802 16.882 16.6552 17.0507 16.4302 17.0507H14.8372V18.3625C14.8372 18.5812 14.6817 18.7492 14.463 18.7492C14.188 18.7492 14.02 18.5812 14.02 18.3625V14.814C14.02 14.5898 14.1888 14.4265 14.463 14.4265H16.656C16.931 14.4265 17.0935 14.5898 17.0935 14.814C17.0935 15.014 16.931 15.239 16.656 15.239H14.8372V15.2398Z" fill="white"/>
<path d="M19.5312 21.0938H4.6875V21.875H19.5312C19.9609 21.875 20.3125 21.5234 20.3125 21.0938V20.3125C20.3125 20.7422 19.9609 21.0938 19.5312 21.0938Z" fill="#CAD1D8"/>
</svg>
